HIERARCHY
ROOT Hips
{
	OFFSET 0.000000 100.481300 0.000000
	CHANNELS 6 Xposition Yposition Zposition Xrotation Yrotation Zrotation
	JOINT Spine
	{
		OFFSET -0.279200 12.230698 -2.892100
		CHANNELS 3 Xrotation Yrotation Zrotation
		JOINT Spine1
		{
			OFFSET -0.325700 14.269203 -3.374200
			CHANNELS 3 Xrotation Yrotation Zrotation
			JOINT Spine2
			{
				OFFSET -0.372300 16.307602 -0.352600
				CHANNELS 3 Xrotation Yrotation Zrotation
				JOINT Neck
				{
					OFFSET -0.418800 17.814194 8.416900
					CHANNELS 3 Xrotation Yrotation Zrotation
					JOINT Head
					{
						OFFSET 0.000000 7.031097 3.806800
						CHANNELS 3 Xrotation Yrotation Zrotation
						JOINT HeadTop_End
						{
							OFFSET 0.000000 24.646606 12.978600
							CHANNELS 3 Xrotation Yrotation Zrotation
							End Site
							{
								OFFSET 0.000000 27.854965 0.000000
							}
						}
					}
				}
				JOINT LeftShoulder
				{
					OFFSET 16.952999 14.495407 -7.737500
					CHANNELS 3 Xrotation Yrotation Zrotation
					JOINT LeftArm
					{
						OFFSET 9.308998 -2.777710 0.208600
						CHANNELS 3 Xrotation Yrotation Zrotation
						JOINT LeftForeArm
						{
							OFFSET 29.972298 0.000000 0.000000
							CHANNELS 3 Xrotation Yrotation Zrotation
							JOINT LeftHand
							{
								OFFSET 26.026505 0.000000 0.000000
								CHANNELS 3 Xrotation Yrotation Zrotation
								JOINT LeftHandThumb1
								{
									OFFSET 12.240501 -7.147949 9.207150
									CHANNELS 3 Xrotation Yrotation Zrotation
									JOINT LeftHandThumb2
									{
										OFFSET 4.138618 -2.389435 2.389433
										CHANNELS 3 Xrotation Yrotation Zrotation
										JOINT LeftHandThumb3
										{
											OFFSET 2.726913 -1.574387 1.574386
											CHANNELS 3 Xrotation Yrotation Zrotation
											JOINT LeftHandThumb4
											{
												OFFSET 3.941010 -2.275345 2.275342
												CHANNELS 3 Xrotation Yrotation Zrotation
												End Site
												{
													OFFSET -0.005798 5.087799 0.009903
												}
											}
										}
									}
								}
								JOINT LeftHandIndex1
								{
									OFFSET 24.424698 -1.985611 5.953459
									CHANNELS 3 Xrotation Yrotation Zrotation
									JOINT LeftHandIndex2
									{
										OFFSET 6.426697 0.000000 0.000000
										CHANNELS 3 Xrotation Yrotation Zrotation
										JOINT LeftHandIndex3
										{
											OFFSET 5.337898 0.000000 0.000000
											CHANNELS 3 Xrotation Yrotation Zrotation
											JOINT LeftHandIndex4
											{
												OFFSET 4.409401 0.000000 0.000000
												CHANNELS 3 Xrotation Yrotation Zrotation
												End Site
												{
													OFFSET 0.000000 4.409363 0.014373
												}
											}
										}
									}
								}
								JOINT LeftHandMiddle1
								{
									OFFSET 23.810104 0.000000 0.000000
									CHANNELS 3 Xrotation Yrotation Zrotation
									JOINT LeftHandMiddle2
									{
										OFFSET 7.176498 0.000000 0.000000
										CHANNELS 3 Xrotation Yrotation Zrotation
										JOINT LeftHandMiddle3
										{
											OFFSET 6.774902 0.000000 0.000000
											CHANNELS 3 Xrotation Yrotation Zrotation
											JOINT LeftHandMiddle4
											{
												OFFSET 5.403328 0.000000 0.000000
												CHANNELS 3 Xrotation Yrotation Zrotation
												End Site
												{
													OFFSET -0.027702 5.403244 0.017414
												}
											}
										}
									}
								}
								JOINT LeftHandRing1
								{
									OFFSET 22.908401 -0.839279 -6.020567
									CHANNELS 3 Xrotation Yrotation Zrotation
									JOINT LeftHandRing2
									{
										OFFSET 6.337502 0.000000 0.000000
										CHANNELS 3 Xrotation Yrotation Zrotation
										JOINT LeftHandRing3
										{
											OFFSET 5.779297 0.000000 0.000000
											CHANNELS 3 Xrotation Yrotation Zrotation
											JOINT LeftHandRing4
											{
												OFFSET 4.965698 0.000000 0.000000
												CHANNELS 3 Xrotation Yrotation Zrotation
												End Site
												{
													OFFSET 0.000000 4.965668 0.016186
												}
											}
										}
									}
								}
								JOINT LeftHandPinky1
								{
									OFFSET 20.037003 -1.530319 -10.950146
									CHANNELS 3 Xrotation Yrotation Zrotation
									JOINT LeftHandPinky2
									{
										OFFSET 5.254700 0.000000 0.000000
										CHANNELS 3 Xrotation Yrotation Zrotation
										JOINT LeftHandPinky3
										{
											OFFSET 4.810204 0.000000 0.000000
											CHANNELS 3 Xrotation Yrotation Zrotation
											JOINT LeftHandPinky4
											{
												OFFSET 3.647202 0.000000 0.000000
												CHANNELS 3 Xrotation Yrotation Zrotation
												End Site
												{
													OFFSET 0.000000 3.647186 0.011889
												}
											}
										}
									}
								}
							}
						}
					}
				}
				JOINT RightShoulder
				{
					OFFSET -15.141001 14.495407 -7.737500
					CHANNELS 3 Xrotation Yrotation Zrotation
					JOINT RightArm
					{
						OFFSET -9.308998 -2.777710 0.208500
						CHANNELS 3 Xrotation Yrotation Zrotation
						JOINT RightForeArm
						{
							OFFSET -29.972300 0.000000 0.000000
							CHANNELS 3 Xrotation Yrotation Zrotation
							JOINT RightHand
							{
								OFFSET -26.026505 0.000000 0.000000
								CHANNELS 3 Xrotation Yrotation Zrotation
								JOINT RightHandThumb1
								{
									OFFSET -12.240601 -7.148026 9.207092
									CHANNELS 3 Xrotation Yrotation Zrotation
									JOINT RightHandThumb2
									{
										OFFSET -4.138618 -2.389435 2.389433
										CHANNELS 3 Xrotation Yrotation Zrotation
										JOINT RightHandThumb3
										{
											OFFSET -2.726974 -1.574417 1.574421
											CHANNELS 3 Xrotation Yrotation Zrotation
											JOINT RightHandThumb4
											{
												OFFSET -3.941010 -2.275345 2.275343
												CHANNELS 3 Xrotation Yrotation Zrotation
												End Site
												{
													OFFSET 0.005814 5.087799 0.009927
												}
											}
										}
									}
								}
								JOINT RightHandIndex1
								{
									OFFSET -24.424698 -1.985657 5.953444
									CHANNELS 3 Xrotation Yrotation Zrotation
									JOINT RightHandIndex2
									{
										OFFSET -6.426697 0.000000 0.000000
										CHANNELS 3 Xrotation Yrotation Zrotation
										JOINT RightHandIndex3
										{
											OFFSET -5.337898 0.000000 0.000000
											CHANNELS 3 Xrotation Yrotation Zrotation
											JOINT RightHandIndex4
											{
												OFFSET -4.409401 0.000000 0.000000
												CHANNELS 3 Xrotation Yrotation Zrotation
												End Site
												{
													OFFSET 0.000000 4.409363 0.014408
												}
											}
										}
									}
								}
								JOINT RightHandMiddle1
								{
									OFFSET -23.810097 0.000000 0.000000
									CHANNELS 3 Xrotation Yrotation Zrotation
									JOINT RightHandMiddle2
									{
										OFFSET -7.176498 0.000000 0.000000
										CHANNELS 3 Xrotation Yrotation Zrotation
										JOINT RightHandMiddle3
										{
											OFFSET -6.774902 0.000000 0.000000
											CHANNELS 3 Xrotation Yrotation Zrotation
											JOINT RightHandMiddle4
											{
												OFFSET -5.403328 0.000000 0.000000
												CHANNELS 3 Xrotation Yrotation Zrotation
												End Site
												{
													OFFSET 0.027702 5.403244 0.017457
												}
											}
										}
									}
								}
								JOINT RightHandRing1
								{
									OFFSET -22.908302 -0.839325 -6.020576
									CHANNELS 3 Xrotation Yrotation Zrotation
									JOINT RightHandRing2
									{
										OFFSET -6.337502 0.000000 0.000000
										CHANNELS 3 Xrotation Yrotation Zrotation
										JOINT RightHandRing3
										{
											OFFSET -5.779297 0.000000 0.000000
											CHANNELS 3 Xrotation Yrotation Zrotation
											JOINT RightHandRing4
											{
												OFFSET -4.965698 0.000000 0.000000
												CHANNELS 3 Xrotation Yrotation Zrotation
												End Site
												{
													OFFSET 0.000000 4.965668 0.016226
												}
											}
										}
									}
								}
								JOINT RightHandPinky1
								{
									OFFSET -20.037003 -1.530334 -10.950259
									CHANNELS 3 Xrotation Yrotation Zrotation
									JOINT RightHandPinky2
									{
										OFFSET -5.254700 0.000000 0.000000
										CHANNELS 3 Xrotation Yrotation Zrotation
										JOINT RightHandPinky3
										{
											OFFSET -4.810204 0.000000 0.000000
											CHANNELS 3 Xrotation Yrotation Zrotation
											JOINT RightHandPinky4
											{
												OFFSET -3.647202 0.000000 0.000000
												CHANNELS 3 Xrotation Yrotation Zrotation
												End Site
												{
													OFFSET 0.000000 3.647186 0.011917
												}
											}
										}
									}
								}
							}
						}
					}
				}
			}
		}
	}
	JOINT LeftUpLeg
	{
		OFFSET 15.427100 -6.655098 0.678600
		CHANNELS 3 Xrotation Yrotation Zrotation
		JOINT LeftLeg
		{
			OFFSET 4.081073 -39.591068 13.024000
			CHANNELS 3 Xrotation Yrotation Zrotation
			JOINT LeftFoot
			{
				OFFSET -4.081074 -37.707932 -15.979700
				CHANNELS 3 Xrotation Yrotation Zrotation
				JOINT LeftToeBase
				{
					OFFSET 5.346399 -15.068900 20.645000
					CHANNELS 3 Xrotation Yrotation Zrotation
					JOINT LeftToe_End
					{
						OFFSET 2.754700 0.931300 11.300900
						CHANNELS 3 Xrotation Yrotation Zrotation
						End Site
						{
							OFFSET 0.000000 11.669021 0.000000
						}
					}
				}
			}
		}
	}
	JOINT RightUpLeg
	{
		OFFSET -15.569500 -6.655098 0.678600
		CHANNELS 3 Xrotation Yrotation Zrotation
		JOINT RightLeg
		{
			OFFSET -4.081825 -39.591045 13.023800
			CHANNELS 3 Xrotation Yrotation Zrotation
			JOINT RightFoot
			{
				OFFSET 4.081824 -37.707954 -15.979600
				CHANNELS 3 Xrotation Yrotation Zrotation
				JOINT RightToeBase
				{
					OFFSET -5.346400 -15.068900 20.645000
					CHANNELS 3 Xrotation Yrotation Zrotation
					JOINT RightToe_End
					{
						OFFSET -2.754700 0.931300 11.300900
						CHANNELS 3 Xrotation Yrotation Zrotation
						End Site
						{
							OFFSET 0.000000 11.669021 0.000000
						}
					}
				}
			}
		}
	}
}
MOTION
Frames: 4
Frame Time: 0.033333
-0.201521 164.512344 3.203251 17.440116 -2.495045 -0.141764 12.367660 -0.062742 0.581368 3.426045 0.047383 0.321977 3.426024 0.046069 0.322395 1.972894 -0.699702 1.708130 -6.603307 -1.981703 -4.452449 -0.000004 0.000000 -0.000000 0.604257 -10.504606 -9.421455 -17.877732 14.490815 -30.611330 -0.000004 -41.131829 -0.000006 16.502854 9.718826 8.939579 -7.220065 -16.942324 15.004572 8.794625 6.511424 5.542588 2.304282 -2.568604 17.187681 0.000001 -0.000003 0.000001 -1.733279 -2.965529 -17.643903 0.673205 2.728560 -27.714375 0.127233 1.215602 -11.950418 -0.000004 0.000001 -0.000001 0.645959 4.940518 -30.246748 0.391310 2.107019 -21.039903 0.060835 0.842936 -8.254797 -0.000000 0.000002 -0.000000 3.708522 9.022022 -37.868843 0.267212 1.750790 -17.354199 0.169843 1.401837 -13.815817 0.000001 -0.000001 0.000001 6.648180 15.451635 -40.793759 0.458219 2.273200 -22.790456 0.306738 1.872542 -18.604522 0.000001 -0.000000 0.000001 0.150132 8.223912 20.126228 -26.070578 -14.560008 26.233276 0.000001 29.063678 0.000017 7.443066 2.218498 -22.979036 -29.747359 -9.206956 6.858815 15.739018 -8.312245 6.828494 -15.022800 -11.158770 -16.303416 -0.000000 0.000002 0.000002 -0.797893 -0.539210 19.767274 0.062417 -0.760731 9.380857 0.132042 -1.102265 13.661691 0.000000 0.000000 -0.000001 -0.103205 -3.204654 28.831174 0.439937 -1.977688 25.080222 0.067199 -0.789130 9.734433 -0.000000 -0.000000 -0.000000 2.018148 -6.407610 37.795265 0.429151 -1.954489 24.765793 0.008462 -0.280930 3.450710 -0.000000 -0.000000 0.000000 4.075640 -9.601499 34.188908 0.179330 -1.281224 15.935026 0.167281 -1.238249 15.386932 0.000000 0.000000 -0.000000 -43.392981 2.661808 -1.890175 22.925897 -1.882126 1.457621 27.586806 0.589581 5.894411 13.234064 0.000001 -0.000003 -0.000002 0.000000 -0.000000 -45.180663 -2.512216 3.024636 20.821092 5.803698 -1.354094 46.337164 0.682497 -0.942788 3.687880 -0.000000 0.000000 0.000000 -0.000000 0.000000 
-0.247008 163.691956 2.223003 18.318402 -1.637208 -0.149871 14.175873 0.187897 0.549590 4.354456 0.139783 0.454527 4.354523 0.137865 0.452995 2.494550 -0.774613 1.874290 -6.235394 -2.564147 -4.235061 0.000001 0.000000 -0.000000 0.582845 -11.070149 -9.764310 -22.452329 7.662423 -32.372050 0.000004 -37.577198 0.000001 18.253250 7.290069 11.938429 -7.220064 -16.942327 15.004575 8.794626 6.511422 5.542585 2.304283 -2.568602 17.187684 -0.000001 -0.000001 0.000000 -1.733278 -2.965526 -17.643900 0.673208 2.728559 -27.714374 0.127239 1.215602 -11.950419 0.000003 0.000001 -0.000001 0.645962 4.940518 -30.246741 0.391308 2.107021 -21.039901 0.060839 0.842934 -8.254796 0.000001 0.000002 -0.000001 3.708521 9.022026 -37.868843 0.267215 1.750791 -17.354203 0.169842 1.401839 -13.815818 0.000001 0.000001 -0.000000 6.648182 15.451636 -40.793752 0.458222 2.273201 -22.790454 0.306739 1.872543 -18.604522 -0.000000 0.000001 -0.000001 0.040612 9.065363 20.318565 -30.548240 -10.983163 26.408624 0.000006 26.865460 -0.000005 9.189625 3.143439 -25.286043 -29.747356 -9.206962 6.858818 15.739020 -8.312247 6.828491 -15.022798 -11.158768 -16.303416 0.000000 -0.000001 0.000001 -0.797892 -0.539211 19.767278 0.062418 -0.760731 9.380856 0.132042 -1.102266 13.661694 0.000000 0.000000 -0.000001 -0.103205 -3.204655 28.831174 0.439937 -1.977687 25.080222 0.067199 -0.789131 9.734433 0.000001 0.000000 0.000000 2.018148 -6.407611 37.795268 0.429152 -1.954490 24.765790 0.008462 -0.280929 3.450710 0.000001 -0.000000 0.000000 4.075640 -9.601500 34.188908 0.179329 -1.281225 15.935023 0.167279 -1.238248 15.386937 -0.000000 -0.000001 0.000000 -45.994825 2.172055 -2.422658 24.114372 -1.665057 1.531026 28.236866 0.638794 6.092276 13.306002 0.000001 0.000002 -0.000001 0.000000 -0.000000 -47.626660 -2.282767 2.152025 22.238164 4.818908 -0.834422 46.613097 0.605645 -1.005970 3.694826 0.000001 -0.000001 0.000002 0.000000 0.000000 
-0.268510 162.832031 1.361216 18.065452 -1.358346 -0.390854 16.135436 0.694911 0.573372 5.269307 0.264345 0.474990 5.269948 0.258274 0.469137 3.172675 -0.886105 2.043516 -4.520182 -3.165394 -3.897493 0.000004 0.000000 -0.000000 0.600025 -11.882267 -9.416439 -28.014777 2.679938 -31.755260 -0.000002 -35.841319 -0.000000 20.688937 5.295806 14.603226 -7.220057 -16.942324 15.004575 8.794623 6.511424 5.542582 2.304284 -2.568602 17.187679 0.000000 0.000004 -0.000001 -1.733277 -2.965525 -17.643902 0.673211 2.728557 -27.714377 0.127237 1.215605 -11.950418 -0.000001 -0.000001 0.000000 0.645962 4.940518 -30.246745 0.391317 2.107020 -21.039899 0.060836 0.842936 -8.254798 0.000003 0.000001 -0.000001 3.708523 9.022023 -37.868843 0.267212 1.750790 -17.354201 0.169842 1.401840 -13.815818 -0.000000 -0.000002 0.000001 6.648179 15.451636 -40.793756 0.458218 2.273201 -22.790453 0.306733 1.872541 -18.604522 -0.000000 -0.000000 0.000002 -0.099580 10.715054 19.863385 -35.652840 -6.856511 26.056533 0.000001 26.696407 -0.000011 11.284637 2.711746 -27.150275 -29.747362 -9.206959 6.858819 15.739018 -8.312246 6.828491 -15.022798 -11.158768 -16.303416 0.000000 0.000002 0.000001 -0.797891 -0.539211 19.767274 0.062417 -0.760731 9.380859 0.132040 -1.102267 13.661691 0.000000 -0.000000 0.000002 -0.103205 -3.204657 28.831174 0.439937 -1.977686 25.080222 0.067198 -0.789131 9.734435 -0.000001 -0.000000 -0.000000 2.018148 -6.407610 37.795268 0.429152 -1.954490 24.765788 0.008461 -0.280929 3.450710 0.000001 0.000000 -0.000000 4.075641 -9.601502 34.188905 0.179329 -1.281225 15.935021 0.167280 -1.238248 15.386934 -0.000000 -0.000001 -0.000000 -47.564515 1.926611 -2.405464 25.950957 -1.402419 1.573947 28.109946 0.659602 6.370113 13.579921 -0.000002 -0.000002 -0.000001 0.000000 0.000000 -48.730791 -2.258607 1.560776 23.568350 3.899838 -0.197954 46.766114 0.525816 -1.049282 3.682812 -0.000002 0.000001 -0.000000 0.000000 -0.000000 
-0.251214 162.143158 0.514557 17.369654 -1.615464 -0.648723 18.609130 1.117344 0.688575 6.230264 0.356414 0.388641 6.231252 0.350115 0.376922 3.641273 -0.950134 2.118584 -3.490292 -3.187498 -3.674168 0.000005 0.000000 -0.000000 0.644445 -12.819936 -8.876678 -33.324022 -2.242520 -30.636230 0.000004 -34.699058 0.000014 23.618436 3.573622 17.257921 -7.220061 -16.942325 15.004573 8.794625 6.511420 5.542586 2.304282 -2.568601 17.187683 0.000000 -0.000001 0.000000 -1.733276 -2.965525 -17.643902 0.673206 2.728557 -27.714377 0.127235 1.215602 -11.950421 0.000001 -0.000000 0.000000 0.645960 4.940525 -30.246741 0.391313 2.107018 -21.039906 0.060837 0.842936 -8.254796 -0.000001 0.000000 0.000000 3.708522 9.022028 -37.868843 0.267216 1.750793 -17.354203 0.169841 1.401840 -13.815819 0.000004 -0.000000 -0.000001 6.648180 15.451636 -40.793756 0.458222 2.273203 -22.790456 0.306735 1.872541 -18.604518 -0.000004 0.000001 0.000001 -0.211462 12.607740 19.170686 -40.471979 -2.243076 25.664665 0.000003 26.983724 -0.000011 13.600826 1.986733 -28.669050 -29.747359 -9.206956 6.858817 15.739017 -8.312246 6.828488 -15.022796 -11.158764 -16.303421 0.000001 0.000001 -0.000002 -0.797891 -0.539212 19.767271 0.062416 -0.760728 9.380859 0.132044 -1.102268 13.661691 -0.000000 0.000000 -0.000000 -0.103204 -3.204656 28.831171 0.439937 -1.977687 25.080228 0.067201 -0.789130 9.734433 0.000000 -0.000000 0.000000 2.018148 -6.407610 37.795268 0.429150 -1.954490 24.765793 0.008460 -0.280930 3.450710 -0.000001 0.000000 0.000000 4.075640 -9.601499 34.188901 0.179328 -1.281224 15.935026 0.167282 -1.238249 15.386932 0.000001 -0.000001 0.000001 -48.433356 1.737471 -1.926197 27.571288 -0.910757 1.506841 27.953664 0.670871 6.414988 13.856354 0.000000 -0.000000 -0.000000 0.000000 -0.000000 -49.066621 -2.212959 1.314884 24.343667 3.071372 0.345780 46.721766 0.442177 -1.098330 3.634149 0.000001 -0.000001 -0.000001 0.000000 -0.000000 
